<?xml version="1.0" encoding="UTF-8"?>
<svg id="_图层_1" data-name="图层 1" xmlns="http://www.w3.org/2000/svg" xmlns:xlink="http://www.w3.org/1999/xlink" viewBox="0 0 500 500">
  <defs>
    <style>
      .cls-1 {
        fill: none;
      }

      .cls-2 {
        fill: #601986;
      }

      .cls-3 {
        fill: url(#_新建图案);
      }

      .cls-4 {
        fill: #cea2e4;
      }
    </style>
    <pattern id="_新建图案" data-name="新建图案" x="0" y="0" width="500" height="500" patternUnits="userSpaceOnUse" viewBox="0 0 500 500">
      <g>
        <rect class="cls-1" width="500" height="500"/>
        <path class="cls-2" d="M460.36,222.68c0,10.82-8.78,19.6-19.6,19.6s-19.6-8.78-19.6-19.6,8.78-19.6,19.6-19.6,19.6,8.78,19.6,19.6ZM452.17,222.68c0-6.3-5.11-11.4-11.4-11.4s-11.4,5.11-11.4,11.4,5.11,11.4,11.4,11.4,11.4-5.11,11.4-11.4Z"/>
        <path class="cls-2" d="M97.16,418.98c0,10.45-8.47,18.92-18.92,18.92s-18.92-8.47-18.92-18.92,8.47-18.92,18.92-18.92,18.92,8.47,18.92,18.92ZM89.37,418.98c0-6.15-4.98-11.13-11.13-11.13s-11.13,4.98-11.13,11.13,4.98,11.13,11.13,11.13,11.13-4.98,11.13-11.13Z"/>
        <path class="cls-2" d="M278.62,271.41c6.94-2.49,14.7.82,17.62,7.69s-.07,14.77-6.69,18.03c1,3.1,2.59,6.03,3.8,9.06,11.63-5.38,16.96-19.06,11.91-30.94-5.05-11.88-18.62-17.53-30.56-12.87,1.19,3.04,2.58,6.02,3.92,9.02Z"/>
        <polygon class="cls-2" points="140.01 187.2 135.77 196.73 186.6 203.08 183.42 191.43 140.01 187.2"/>
        <polygon class="cls-2" points="471.88 468.48 467.68 458.93 428.78 492.25 439.53 497.74 471.88 468.48"/>
        <polygon class="cls-2" points="189.49 80.16 198.09 89.79 231.12 35.68 216.36 33.34 189.49 80.16"/>
        <path class="cls-2" d="M307.73,28.45c-2.08-6.57,1.29-13.69,7.81-16.17s13.78.6,16.59,6.89c2.93-.82,5.72-2.2,8.6-3.22-4.6-11.05-17.18-16.52-28.44-12.23-11.27,4.29-17.03,16.75-13.11,28.06,2.88-1,5.71-2.2,8.56-3.33Z"/>
        <circle class="cls-2" cx="465.2" cy="95.76" r="10.5"/>
        <circle class="cls-2" cx="186.2" cy="305.76" r="8.5"/>
        <path class="cls-2" d="M108.58,48.64l8.48-.72,6.21,5.71c.74.66,1.72,1.01,2.72.96,2.1-.1,3.72-1.89,3.61-3.99l-.58-8.65,5.7-6.43c1.02-1.16,1.24-2.82.55-4.2-.7-1.38-2.17-2.2-3.71-2.07l-8.52.72-6.4-5.67c-.76-.65-1.74-.98-2.74-.91-2.1.14-3.68,1.96-3.53,4.06l.72,8.52-5.67,6.4c-.65.76-.97,1.73-.9,2.73.14,2.1,1.95,3.69,4.05,3.55Z"/>
        <path class="cls-4" d="M139.75,77.41l-14.31,14,2.86,19.96c.6,4.2-2.31,8.09-6.51,8.69-2.46.35-4.94-.51-6.65-2.31l-13.69-14.36-19.93,2.85c-3.32.57-6.61-1.17-7.99-4.25-1.5-3-.84-6.63,1.61-8.91l14.34-13.67-3.09-19.71c-.6-4.22,2.33-8.12,6.55-8.72,2.39-.34,4.81.46,6.52,2.16l13.98,14.28,19.74-3.1c3.31-.56,6.58,1.13,8.05,4.14,1.54,2.98.93,6.61-1.49,8.93ZM134.47,72.01l-21.77,3.19c-1.21.19-2.43-.22-3.29-1.09l-15.34-15.67s-.04-.04-.06-.05l3.25,21.83c.19,1.22-.23,2.47-1.13,3.32l-15.77,15.03,21.95-2.93c1.21-.17,2.43.25,3.27,1.13l15.04,15.79-2.92-21.96c-.17-1.19.23-2.39,1.09-3.24l15.67-15.35Z"/>
        <path class="cls-1" d="M109.41,74.11l-15.34-15.67s-.04-.04-.06-.05l3.25,21.83c.19,1.22-.23,2.47-1.13,3.32l-15.77,15.03,21.95-2.93c1.21-.17,2.43.25,3.27,1.13l15.04,15.79-2.92-21.96c-.17-1.19.23-2.39,1.09-3.24l15.67-15.35-21.77,3.19c-1.21.19-2.43-.22-3.29-1.09Z"/>
        <path class="cls-2" d="M71.05,64.94l4.22-3.63c1.31-1.13,1.69-3.01.91-4.56-.78-1.55-2.51-2.37-4.2-1.99l-5.39,1.21-3.6-4.19c-.91-1.06-2.33-1.53-3.69-1.22-2.04.45-3.32,2.47-2.86,4.51l1.2,5.39-4.19,3.6c-1.06.91-1.53,2.33-1.22,3.69.45,2.04,2.47,3.32,4.51,2.86l5.35-1.18,3.47,4.18c.89,1.07,2.3,1.57,3.67,1.29,2.04-.42,3.36-2.42,2.94-4.46l-1.13-5.49Z"/>
        <g>
          <path class="cls-2" d="M340.74,148.41c.86.08,1.73.13,2.59.12.85,0,1.7-.04,2.55-.12l-.05-5.41c-11.68,1.42-22.31-6.91-23.72-18.59-.21-1.71-.21-3.43,0-5.14l-5.39-.04c-1.42,14.69,9.33,27.75,24.02,29.18Z"/>
          <path class="cls-2" d="M297.97,144.13c-1.73-.17-3.48-.17-5.21,0l.06,5.39c11.68-1.42,22.31,6.91,23.72,18.59.21,1.71.21,3.43,0,5.14l5.39.03c1.43-14.67-9.29-27.72-23.96-29.15Z"/>
          <path class="cls-4" d="M342.04,168.98c-12.53,12.52-32.84,12.52-45.37,0-12.54-12.53-12.55-32.85-.02-45.39,12.53-12.54,32.85-12.55,45.39-.02,12.52,12.55,12.52,32.86,0,45.41ZM345.93,149.3l-.05-5.41c-1.3-12.52-11.1-22.41-23.5-23.73l-5.55-.04c-12.79,1.19-22.93,11.28-24.13,24.04l.06,5.38c1.32,12.49,11.21,22.36,23.74,23.67l5.39.03c6.2-.57,12.01-3.29,16.41-7.69v.11c4.36-4.39,7.06-10.18,7.64-16.37Z"/>
          <path class="cls-1" d="M322.19,124.82c1.42,11.68,12.04,20.01,23.72,18.59-1.31-12.52-11.21-22.41-23.72-23.73-.21,1.71-.21,3.43,0,5.14Z"/>
          <path class="cls-1" d="M316.47,167.72c-1.42-11.68-12.04-20.01-23.72-18.59,1.31,12.52,11.21,22.41,23.72,23.73.21-1.71.21-3.43,0-5.14Z"/>
          <path class="cls-1" d="M343.45,148.95c-.87,0-1.73-.04-2.59-.12-14.69-1.42-25.44-14.49-24.02-29.18-12.79,1.19-22.92,11.31-24.12,24.09,1.73-.17,3.48-.17,5.21,0,14.67,1.43,25.39,14.49,23.96,29.15,6.2-.57,12-3.3,16.4-7.7h0c4.4-4.38,7.13-10.17,7.71-16.36-.85.08-1.7.12-2.55.12Z"/>
        </g>
        <g>
          <path class="cls-4" d="M91.48,257.56c-4.65-5.78-8.61-12.09-11.8-18.78-1-2.94,1.48-6.23,5.25-5.36,1.29.29,2.18,1.38,2.6,2.63.8,2.45,3.66,3.63,6.01,2.3,1.78-1,2.48-3.24,1.78-5.17-2.31-6.36-9.3-9.72-15.73-7.52s-9.99,9.3-7.77,15.8c1.12,2.96,2.56,5.8,4.29,8.45l-13.85,21.11-27.16-8.25,11.84-4.04c1.7-.58,2.93-2.16,2.89-3.95-.07-3-2.92-4.8-5.5-3.92l-11.9,4.07c-4.27,1.46-6.56,6.1-5.1,10.37.84,2.47,2.81,4.38,5.31,5.16l24.9,7.76-4.15,6.32,6.71,4.89,21.04-32.03c1.19,1.68,6.05,8.38,7.15,9.93l7.9-3.15c-1.43-2.08-2.99-4.26-4.69-6.61Z"/>
          <path class="cls-2" d="M53.27,284.9l6.69,4.87c5.5,6.05,6.87,14.78,3.49,22.23-4.68,10.29-16.82,14.85-27.12,10.19-10.3-4.67-14.86-16.8-10.18-27.09,4.68-10.29,16.82-14.85,27.12-10.19ZM40.61,291.89c-6.48,2.21-9.95,9.26-7.73,15.74,2.21,6.48,9.26,9.93,15.75,7.72s9.95-9.26,7.73-15.74c-2.21-6.48-9.26-9.93-15.75-7.72Z"/>
          <path class="cls-2" d="M110.81,302.16c-9.51,6.29-22.32,3.69-28.61-5.81-6.29-9.5-3.68-22.3,5.84-28.59l7.87-3.14h0c8.08-1.39,16.22,2.12,20.74,8.95,6.29,9.5,3.68,22.3-5.84,28.59ZM111.14,280.89c-2.21-6.48-9.26-9.93-15.75-7.72s-9.95,9.26-7.73,15.74c2.21,6.48,9.26,9.93,15.75,7.72,6.48-2.21,9.95-9.26,7.73-15.74Z"/>
          <ellipse class="cls-1" cx="44.62" cy="303.62" rx="12.39" ry="12.41" transform="translate(-257.12 247.66) rotate(-71.13)"/>
          <ellipse class="cls-1" cx="99.4" cy="284.9" rx="12.39" ry="12.41" transform="translate(-202.33 287.01) rotate(-71.17)"/>
        </g>
        <g>
          <path class="cls-1" d="M208.85,451.37c1.26,4.3-.6,8.9-4.48,11.13-.17.1-.36.19-.55.26l-12.93,4.91c-2.15.62-3.87,2.25-4.59,4.36-.88,2.58-.12,5.43,1.91,7.25,2.8,2.49,7.09,2.25,9.58-.55l10.39-10.86c.1-.1.21-.2.32-.3,3.45-2.87,8.41-3,12.01-.33,4.41,3.25,9.66,5.16,15.12,5.5l-26.48-38.18c-1.78,5.45-1.89,11.3-.3,16.81Z"/>
          <circle class="cls-1" cx="206.56" cy="414.32" r="9.74" transform="translate(-230.47 567.07) rotate(-82.77)"/>
          <path class="cls-1" d="M223.92,416.09c-.05.45-.02.9-.11,1.35-.95,5.12-4.13,9.54-8.68,12.07l29.35,42.33s.03.1.06.14c4.22-1,8.21-2.78,11.77-5.26h0c7.01-4.77,11.92-12.04,13.73-20.33,1.77-7.87.17-16.12-4.41-22.76-9.8-13.03-27.98-16.32-41.72-7.55Z"/>
          <path class="cls-2" d="M215.14,429.51l-5.99,5.04,26.48,38.18,8.92-.76s-.03-.1-.06-.14l-29.35-42.33Z"/>
          <path class="cls-4" d="M277.68,448.01c-2.22,10.23-8.27,19.22-16.92,25.12-13.24,10-31.46,10.16-44.87.38-.67-.5-1.58-.53-2.27-.06l-10.1,10.55c-2.95,3.29-7.24,5.04-11.65,4.76-.59-.04-1.19-.11-1.77-.21-5.31-.97-9.65-4.81-11.28-9.96-2.42-7.68,1.84-15.87,9.52-18.3l12.36-4.69c.64-.5.9-1.34.66-2.11-2.09-7.33-1.84-15.13.7-22.32-5.36-1.42-9.74-5.3-11.78-10.45-3.57-8.98.82-19.15,9.79-22.71,8.98-3.57,19.15.82,22.71,9.79,16.95-9.11,38.03-4.24,49.26,11.39,5.81,8.4,7.85,18.84,5.63,28.81ZM204.83,423.91c5.29.96,10.36-2.56,11.32-7.85.96-5.29-2.56-10.36-7.85-11.32-5.29-.96-10.36,2.56-11.32,7.85-.96,5.29,2.56,10.36,7.85,11.32ZM265.65,423.64c-9.8-13.03-27.98-16.32-41.72-7.55-.05.45-.02.9-.11,1.35-.95,5.12-4.13,9.54-8.68,12.07l-5.99,5.04c-1.78,5.45-1.89,11.3-.3,16.81,1.26,4.3-.6,8.9-4.48,11.13-.17.1-.36.19-.55.26l-12.93,4.91c-2.15.62-3.87,2.25-4.59,4.36-.88,2.58-.12,5.43,1.91,7.25,2.8,2.49,7.09,2.25,9.58-.55l10.39-10.86c.1-.1.21-.2.32-.3,3.45-2.87,8.41-3,12.01-.33,4.41,3.25,9.66,5.16,15.12,5.5l8.92-.76c4.22-1,8.21-2.78,11.77-5.26h0c7.01-4.77,11.92-12.04,13.73-20.33,1.77-7.87.17-16.12-4.41-22.76Z"/>
        </g>
        <g>
          <polygon class="cls-2" points="417.26 407.78 421.34 400.69 411.12 382.63 431.87 382.41 435.95 375.32 399.14 375.73 417.26 407.78"/>
          <path class="cls-4" d="M448.64,367.39l-31.89,55.34c-.92,1.6-2.25,2.92-3.85,3.82-4.93,2.78-11.18,1.03-13.96-3.9l-39.41-69.74,80.1-.89c1.84-.02,3.65.45,5.25,1.37,4.9,2.83,6.58,9.1,3.75,14ZM442.54,360.64h0c-.58-1-1.66-1.61-2.82-1.58l-68.2.76,33.56,59.39c.28.5.7.92,1.2,1.21,1.54.88,3.5.35,4.38-1.19l6.59-11.45,4.08-7.09,10.53-18.28,4.08-7.09,6.6-11.46c.59-1,.58-2.24-.01-3.23Z"/>
          <polygon class="cls-1" points="421.34 400.69 431.87 382.41 411.12 382.63 421.34 400.69"/>
          <path class="cls-1" d="M439.72,359.06l-68.2.76,33.56,59.39c.28.5.7.92,1.2,1.21,1.54.88,3.5.35,4.38-1.19l6.59-11.45-18.11-32.05,36.81-.41,6.6-11.46c.59-1,.58-2.24-.01-3.23h0c-.58-1-1.66-1.61-2.82-1.58Z"/>
        </g>
      </g>
    </pattern>
  </defs>
  <rect class="cls-3" width="500" height="500"/>
</svg>